<?xml version="1.0" encoding="UTF-8" standalone="no"?>
<svg width="31px" height="26px" viewBox="0 0 31 26" version="1.1" xmlns="http://www.w3.org/2000/svg" xmlns:xlink="http://www.w3.org/1999/xlink">
    <!-- Generator: Sketch 48.2 (47327) - http://www.bohemiancoding.com/sketch -->
    <title>marketing</title>
    <desc>Created with Sketch.</desc>
    <defs></defs>
    <g id="Desktop-HD-Copy" stroke="none" stroke-width="1" fill="none" fill-rule="evenodd" transform="translate(-149.000000, -1910.000000)">
        <g id="hanzo" transform="translate(0.000000, 1408.000000)" fill="#B17BE0">
            <g id="marketing" transform="translate(128.000000, 481.000000)">
                <g transform="translate(21.000000, 20.000000)">
                    <path d="M2.66022024,22.0641034 L2.66022024,25.2135398 C2.66022024,25.9792742 3.28068138,26.5997354 4.04641583,26.5997354 C4.81215027,26.5997354 5.43261142,25.9792742 5.43261142,25.2135398 L5.43261142,22.0641034 C5.43261142,20.8292804 3.93995601,20.2104827 3.0660983,21.0837859 C2.80660249,21.3438362 2.66022024,21.6964843 2.66022024,22.0641034" id="Fill-1"></path>
                    <path d="M8.23045315,19.3404508 L8.23045315,25.2134843 C8.23045315,25.9792188 8.85146878,26.5996799 9.61664874,26.5996799 C10.3823832,26.5996799 11.0028443,25.9792188 11.0028443,25.2134843 L11.0028443,19.3404508 C11.0028443,18.1050733 9.51018892,17.4868301 8.63633122,18.3595788 C8.37683541,18.6201836 8.23045315,18.9728318 8.23045315,19.3404508" id="Fill-4"></path>
                    <path d="M13.8012405,16.6156893 L13.8012405,25.2134289 C13.8012405,25.9791633 14.4217017,26.5996245 15.1874361,26.5996245 C15.9531706,26.5996245 16.5736317,25.9791633 16.5736317,25.2134289 L16.5736317,16.6156893 C16.5736317,15.3803118 15.0804218,14.7620686 14.2071186,15.6353718 C13.9476228,15.8954221 13.8012405,16.2480703 13.8012405,16.6156893" id="Fill-7"></path>
                    <path d="M19.3714735,13.8909833 L19.3714735,25.2134289 C19.3714735,25.9791633 19.9919346,26.5996245 20.7576691,26.5996245 C21.5234035,26.5996245 22.1438646,25.9791633 22.1438646,25.2134289 L22.1438646,13.8909833 C22.1438646,12.6556058 20.6512092,12.0373625 19.7773515,12.9106658 C19.5178557,13.1707161 19.3714735,13.5233642 19.3714735,13.8909833" id="Fill-10"></path>
                    <path d="M26.328401,26.599569 C27.093581,26.599569 27.7145966,25.9791079 27.7145966,25.2133734 L27.7145966,11.1667763 C27.7145966,9.93195323 26.2213867,9.31371 25.347529,10.1864587 C25.0880332,10.446509 24.9422054,10.7997117 24.9422054,11.1667763 L24.9422054,25.2133734 C24.9422054,25.9791079 25.5626666,26.599569 26.328401,26.599569" id="Fill-13"></path>
                    <path d="M0.967509075,19.6209614 C0.629831829,19.5139471 0.332077016,19.2777394 0.155752937,18.9378442 C-0.196895222,18.2580539 0.0686998535,17.4213462 0.747935693,17.0686981 L26.3925541,3.76122039 C27.0728989,3.40912671 27.9090521,3.6741673 28.2617003,4.35395762 C28.613794,5.03374794 28.3487534,5.86990112 27.668963,6.22254928 L2.02434459,19.530027 C1.68444943,19.706351 1.30518632,19.7279757 0.967509075,19.6209614" id="Fill-15"></path>
                    <path d="M28.3070011,8.60070644 C27.6926393,8.44157118 27.3228023,7.81501078 27.4819375,7.20009441 L28.2371369,4.27411276 L25.3117097,3.5189134 C24.6962389,3.36033262 24.3269564,2.73321774 24.4855371,2.11885585 C24.6446724,1.50338501 25.2712328,1.1341025 25.8861492,1.29268328 L29.9249686,2.33565684 C30.5393305,2.49423762 30.9091675,3.1213525 30.7505867,3.73626887 L29.7076132,7.77508834 C29.5484779,8.38945023 28.9219175,8.75928721 28.3070011,8.60070644" id="Fill-18"></path>
                </g>
            </g>
        </g>
    </g>
</svg>