<?xml version="1.0" encoding="UTF-8" standalone="no"?>
<svg width="32px" height="28px" viewBox="0 0 32 28" version="1.1" xmlns="http://www.w3.org/2000/svg" xmlns:xlink="http://www.w3.org/1999/xlink">
    <!-- Generator: Sketch 48.2 (47327) - http://www.bohemiancoding.com/sketch -->
    <title>analytics</title>
    <desc>Created with Sketch.</desc>
    <defs></defs>
    <g id="Desktop-HD-Copy" stroke="none" stroke-width="1" fill="none" fill-rule="evenodd" transform="translate(-156.000000, -1733.000000)">
        <g id="hanzo" transform="translate(0.000000, 1408.000000)" fill="#4A90E2">
            <g id="Analytics" transform="translate(127.000000, 304.000000)">
                <g id="analytics" transform="translate(28.953125, 20.650703)">
                    <g id="Page-1" transform="translate(0.578418, 0.382648)">
                        <path d="M1.74256125,27.2261685 C0.780667438,27.2261685 0,26.5015822 0,25.6087883 L0,8.62629694 C0,7.73350311 0.780667438,7.00891681 1.74256125,7.00891681 C2.70445505,7.00891681 3.48512249,7.73350311 3.48512249,8.62629694 L3.48512249,25.6087883 C3.48512249,26.5015822 2.70445505,27.2261685 1.74256125,27.2261685" id="Fill-1"></path>
                        <path d="M8.67662548,27.2261685 C7.71473167,27.2261685 6.93406423,26.5015822 6.93406423,25.6087883 L6.93406423,1.88667393 C6.93406423,0.993880092 7.71473167,0.269293792 8.67662548,0.269293792 C9.63851928,0.269293792 10.4191867,0.993880092 10.4191867,1.88667393 L10.4191867,25.6087883 C10.4191867,26.5015822 9.63851928,27.2261685 8.67662548,27.2261685" id="Fill-3"></path>
                        <path d="M15.6106897,27.2261685 C14.6487959,27.2261685 13.8681285,26.5015822 13.8681285,25.6087883 L13.8681285,9.43498701 C13.8681285,8.54219317 14.6487959,7.81760687 15.6106897,7.81760687 C16.5725835,7.81760687 17.353251,8.54219317 17.353251,9.43498701 L17.353251,25.6087883 C17.353251,26.5015822 16.5725835,27.2261685 15.6106897,27.2261685" id="Fill-5"></path>
                        <path d="M22.5447539,27.2261685 C21.5828601,27.2261685 20.8021927,26.5015822 20.8021927,25.6087883 L20.8021927,1.61738013 C20.8021927,0.7245863 21.5828601,0 22.5447539,0 C23.5066477,0 24.2873152,0.7245863 24.2873152,1.61738013 L24.2873152,25.6087883 C24.2873152,26.5015822 23.5066477,27.2261685 22.5447539,27.2261685" id="Fill-7"></path>
                        <path d="M29.4788182,27.2261685 C28.5169244,27.2261685 27.7362569,26.5015822 27.7362569,25.6087883 L27.7362569,4.8521404 C27.7362569,3.95934657 28.5169244,3.23476027 29.4788182,3.23476027 C30.440712,3.23476027 31.2213794,3.95934657 31.2213794,4.8521404 L31.2213794,25.6087883 C31.2213794,26.5015822 30.440712,27.2261685 29.4788182,27.2261685" id="Fill-9"></path>
                    </g>
                </g>
            </g>
        </g>
    </g>
</svg>