<?xml version="1.0" encoding="UTF-8" standalone="no"?>
<svg width="28px" height="28px" viewBox="0 0 28 28" version="1.1" xmlns="http://www.w3.org/2000/svg" xmlns:xlink="http://www.w3.org/1999/xlink">
    <!-- Generator: Sketch 48.2 (47327) - http://www.bohemiancoding.com/sketch -->
    <title>Page 1</title>
    <desc>Created with Sketch.</desc>
    <defs></defs>
    <g id="Desktop-HD-Copy" stroke="none" stroke-width="1" fill="none" fill-rule="evenodd" transform="translate(-151.000000, -1526.000000)">
        <g id="hanzo" transform="translate(0.000000, 1408.000000)" fill="#1DE2A0" stroke="#1DE2A0">
            <g id="Commerce" transform="translate(128.000000, 96.000000)">
                <path d="M47.083217,46.9082672 L27.0368962,46.9082672 C26.7041126,46.9082672 26.520404,46.7612 26.5013304,46.7581884 L27.8319628,29.1181488 C27.8610751,29.0599242 28.0598418,28.9213899 28.3740537,28.9213899 L30.4314895,28.9213899 L30.4314895,29.7315146 C30.4314895,30.2861539 30.8812242,30.7353867 31.4353615,30.7353867 C31.9900008,30.7353867 32.4392336,30.2861539 32.4392336,29.7315146 L32.4392336,28.9213899 L41.6808796,28.9213899 L41.6808796,29.7315146 C41.6808796,30.2861539 42.1306143,30.7353867 42.6847516,30.7353867 C43.239391,30.7353867 43.6886237,30.2861539 43.6886237,29.7315146 L43.6886237,28.9213899 L45.7465614,28.9213899 C46.0607733,28.9213899 46.2585361,29.0599242 46.2816252,29.0900404 L47.6258098,46.7105044 C47.5997092,46.7612 47.4160006,46.9082672 47.083217,46.9082672 Z M37.0128746,24.8436616 C38.3214218,24.8436616 39.5782696,25.0961355 40.4611751,25.5368353 C41.2211062,25.9162989 41.6246628,26.3800878 41.6718448,26.9136458 L32.4502762,26.9136458 C32.5647176,25.5689592 34.8515381,24.8436616 37.0128746,24.8436616 Z M48.283848,28.9384557 C48.1965111,27.7840029 47.1058041,26.9136458 45.7465614,26.9136458 L43.6810947,26.9136458 C43.5962675,24.1148505 40.1881219,22.8359176 37.0128746,22.8359176 C32.5426324,22.8359176 30.5047721,24.8672526 30.4380147,26.9136458 L28.3740537,26.9136458 C27.014811,26.9136458 25.9236021,27.7840029 25.8362652,28.9384557 L24.4996096,46.6066037 C24.4584508,47.1486946 24.6506923,47.6782371 25.0396927,48.0983575 C25.5215513,48.6178613 26.2493586,48.9160113 27.0368962,48.9160113 L47.083217,48.9160113 C47.8707546,48.9160113 48.5990638,48.6178613 49.0804204,48.0983575 C49.4699228,47.6782371 49.6621643,47.1486946 49.6210055,46.6061017 L48.283848,28.9384557 Z" id="Page-1"></path>
            </g>
        </g>
    </g>
</svg>