<?xml version="1.0" encoding="UTF-8" standalone="no"?>
<svg width="24px" height="20px" viewBox="0 0 24 20" version="1.1" xmlns="http://www.w3.org/2000/svg" xmlns:xlink="http://www.w3.org/1999/xlink">
    <!-- Generator: Sketch 48.2 (47327) - http://www.bohemiancoding.com/sketch -->
    <title>Fill 1</title>
    <desc>Created with Sketch.</desc>
    <defs></defs>
    <g id="Desktop-HD-Copy" stroke="none" stroke-width="1" fill="none" fill-rule="evenodd" transform="translate(-1255.000000, -409.000000)">
        <g id="hero" fill="#B17BE0">
            <g id="whitepaper" transform="translate(828.000000, 370.000000)">
                <path d="M448.435294,45.7963773 L440.385515,37.7462619 C439.792708,37.1541284 438.832008,37.1541284 438.239537,37.7462619 L430.189759,45.7963773 C429.596951,46.388848 429.596951,47.3495475 430.189759,47.9420182 C430.78223,48.5348261 431.742929,48.5348261 432.335737,47.9420182 L437.7951,42.4829926 L437.7951,58.5872698 C437.7951,59.4252264 438.474233,60.1046962 439.312526,60.1046962 C440.150483,60.1046962 440.829953,59.4252264 440.829953,58.5872698 L440.829953,42.4829926 L446.289316,47.9420182 C446.58572,48.2384221 446.973843,48.3867927 447.362305,48.3867927 C447.750766,48.3867927 448.13889,48.2384221 448.435294,47.9420182 C449.027764,47.3495475 449.027764,46.388848 448.435294,45.7963773" id="Fill-1" transform="translate(439.312400, 48.703429) rotate(-270.000000) translate(-439.312400, -48.703429) "></path>
            </g>
        </g>
    </g>
</svg>