<?xml version="1.0" encoding="UTF-8" standalone="no"?>
<svg width="24px" height="20px" viewBox="0 0 24 20" version="1.1" xmlns="http://www.w3.org/2000/svg" xmlns:xlink="http://www.w3.org/1999/xlink">
    <!-- Generator: Sketch 48.2 (47327) - http://www.bohemiancoding.com/sketch -->
    <title>Fill 1 Copy 2</title>
    <desc>Created with Sketch.</desc>
    <defs></defs>
    <g id="Desktop-HD-Copy" stroke="none" stroke-width="1" fill="none" fill-rule="evenodd" transform="translate(-1255.000000, -281.000000)">
        <g id="hero" fill="#FFFFFF">
            <g id="presale" transform="translate(828.000000, 242.000000)">
                <path d="M448.435294,46.027475 L440.385515,37.9773596 C439.792708,37.3852261 438.832008,37.3852261 438.239537,37.9773596 L430.189759,46.027475 C429.596951,46.6199456 429.596951,47.5806451 430.189759,48.1731158 C430.78223,48.7659237 431.742929,48.7659237 432.335737,48.1731158 L437.7951,42.7140902 L437.7951,58.8183675 C437.7951,59.656324 438.474233,60.3357938 439.312526,60.3357938 C440.150483,60.3357938 440.829953,59.656324 440.829953,58.8183675 L440.829953,42.7140902 L446.289316,48.1731158 C446.58572,48.4695198 446.973843,48.6178903 447.362305,48.6178903 C447.750766,48.6178903 448.13889,48.4695198 448.435294,48.1731158 C449.027764,47.5806451 449.027764,46.6199456 448.435294,46.027475" id="Fill-1-Copy-2" transform="translate(439.312400, 48.934527) rotate(-270.000000) translate(-439.312400, -48.934527) "></path>
            </g>
        </g>
    </g>
</svg>