<?xml version="1.0" encoding="UTF-8" standalone="no"?>
<svg width="36px" height="37px" viewBox="0 0 36 37" version="1.1" xmlns="http://www.w3.org/2000/svg" xmlns:xlink="http://www.w3.org/1999/xlink">
    <!-- Generator: Sketch 48.2 (47327) - http://www.bohemiancoding.com/sketch -->
    <title>$</title>
    <desc>Created with Sketch.</desc>
    <defs>
        <polygon id="path-1" points="0.0002 0.668 35.332 0.668 35.332 36 0.0002 36"></polygon>
    </defs>
    <g id="Desktop-HD-Copy" stroke="none" stroke-width="1" fill="none" fill-rule="evenodd" transform="translate(-962.000000, -1878.000000)">
        <g id="hanzo" transform="translate(0.000000, 1408.000000)">
            <g id="50m" transform="translate(962.000000, 469.000000)">
                <g id="$">
                    <g id="Group-3" stroke-width="1" transform="translate(0.058594, 1.142239)">
                        <mask id="mask-2" fill="white">
                            <use xlink:href="#path-1"></use>
                        </mask>
                        <g id="Clip-2"></g>
                        <path d="M35.3322,18.3334 C35.3322,28.0904 27.4232,36.0004 17.6662,36.0004 C7.9092,36.0004 0.0002,28.0904 0.0002,18.3334 C0.0002,8.5774 7.9092,0.6674 17.6662,0.6674 C27.4232,0.6674 35.3322,8.5774 35.3322,18.3334" id="Fill-1" fill="#FE98B0" mask="url(#mask-2)"></path>
                        <path d="M318.492188,-884.17595 L319.992188,-882.67595" id="Line-3" stroke="#979797" stroke-linecap="square" mask="url(#mask-2)"></path>
                    </g>
                    <path d="M18.5231938,22.1573387 L18.5231938,25.4193387 C18.5231938,25.9583387 19.0441938,26.3353387 19.5621938,26.1843387 C20.7701938,25.8323387 21.4421938,24.9753387 21.4421938,23.7513387 C21.4421938,22.6463387 20.8661938,21.8873387 19.6201938,21.4133387 C19.0921938,21.2113387 18.5231938,21.5923387 18.5231938,22.1573387 M16.9231938,17.2293387 L16.9231938,14.4383387 C16.9231938,13.8563387 16.3221938,13.4703387 15.7911938,13.7093387 C14.9061938,14.1043387 14.3321938,14.8983387 14.3321938,15.8703387 C14.3321938,16.8083387 14.8361938,17.5143387 15.7871938,17.9583387 C16.3151938,18.2053387 16.9231938,17.8123387 16.9231938,17.2293387 M16.9231938,29.1743387 L16.9231938,29.1503387 C16.9231938,28.7533387 16.6301938,28.4173387 16.2371938,28.3623387 C13.6991938,28.0053387 11.9751938,26.6453387 11.5501938,24.6613387 C11.4431938,24.1633387 11.8271938,23.6923387 12.3361938,23.6923387 L13.2641938,23.6923387 C13.6101938,23.6923387 13.9271938,23.9123387 14.0231938,24.2443387 C14.2711938,25.1003387 14.9251938,25.7473387 15.8881938,26.0883387 C16.3951938,26.2663387 16.9231938,25.8613387 16.9231938,25.3233387 L16.9231938,21.4173387 C16.9231938,21.0523387 16.6771938,20.7333387 16.3241938,20.6423387 L15.8841938,20.5283387 C13.2691938,19.8753387 11.8331938,18.3103387 11.8331938,16.0463387 C11.8331938,13.5763387 13.4911938,11.8703387 16.2571938,11.4033387 C16.6411938,11.3393387 16.9231938,11.0083387 16.9231938,10.6183387 L16.9231938,10.4943387 C16.9231938,10.0533387 17.2821938,9.69433868 17.7231938,9.69433868 C18.1651938,9.69433868 18.5231938,10.0533387 18.5231938,10.4943387 L18.5231938,10.6163387 C18.5231938,11.0063387 18.8061938,11.3363387 19.1901938,11.4013387 C21.4791938,11.7913387 23.0571938,13.1393387 23.5001938,15.0223387 C23.6181938,15.5213387 23.2291938,15.9993387 22.7171938,15.9993387 L21.8631938,15.9993387 C21.5171938,15.9993387 21.1921938,15.7813387 21.1031938,15.4473387 C20.9101938,14.7263387 20.3931938,14.1313387 19.6571938,13.7723387 C19.1331938,13.5173387 18.5231938,13.9193387 18.5231938,14.5023387 L18.5231938,18.0213387 C18.5231938,18.3953387 18.7821938,18.7193387 19.1471938,18.8023387 L19.6091938,18.9063387 C22.5041938,19.6293387 23.9171938,21.0893387 23.9171938,23.5173387 C23.9171938,26.1613387 22.2031938,27.8923387 19.2011938,28.3433387 C18.8121938,28.4013387 18.5231938,28.7363387 18.5231938,29.1303387 L18.5231938,29.1743387 C18.5231938,29.6153387 18.1651938,29.9733387 17.7231938,29.9733387 C17.2821938,29.9733387 16.9231938,29.6153387 16.9231938,29.1743387" id="Fill-4" fill="#FEFEFE"></path>
                    <path d="M16.1212937,13.6944387 C16.0172937,13.6944387 15.9122937,13.7154387 15.8132937,13.7594387 C14.9202937,14.1594387 14.3882937,14.9484387 14.3882937,15.8704387 C14.3882937,16.7814387 14.8672937,17.4664387 15.8112937,17.9084387 C16.0402937,18.0144387 16.3052937,17.9974387 16.5202937,17.8594387 C16.7382937,17.7214387 16.8682937,17.4864387 16.8682937,17.2304387 L16.8682937,14.4384387 C16.8682937,14.1854387 16.7412937,13.9524387 16.5282937,13.8144387 C16.4052937,13.7344387 16.2632937,13.6944387 16.1212937,13.6944387 Z M16.1212937,18.0894387 C16.0002937,18.0894387 15.8782937,18.0624387 15.7642937,18.0084387 C14.7902937,17.5544387 14.2752937,16.8154387 14.2752937,15.8704387 C14.2752937,14.9034387 14.8332937,14.0764387 15.7672937,13.6574387 C16.0362937,13.5374387 16.3432937,13.5614387 16.5892937,13.7204387 C16.8332937,13.8794387 16.9792937,14.1474387 16.9792937,14.4384387 L16.9792937,17.2304387 C16.9792937,17.5244387 16.8302937,17.7954387 16.5802937,17.9544387 C16.4402937,18.0444387 16.2812937,18.0894387 16.1212937,18.0894387 Z M19.3282937,21.4154387 C19.1762937,21.4154387 19.0272937,21.4604387 18.8992937,21.5484387 C18.6952937,21.6874387 18.5792937,21.9104387 18.5792937,22.1574387 L18.5792937,25.4194387 C18.5792937,25.6534387 18.6862937,25.8694387 18.8742937,26.0094387 C19.0672937,26.1554387 19.3132937,26.1994387 19.5462937,26.1314387 C20.7322937,25.7854387 21.3862937,24.9394387 21.3862937,23.7514387 C21.3862937,22.6564387 20.8182937,21.9294387 19.6002937,21.4654387 C19.5122937,21.4314387 19.4192937,21.4154387 19.3282937,21.4154387 Z M19.3282937,26.2744387 C19.1422937,26.2744387 18.9602937,26.2154387 18.8072937,26.0994387 C18.5912937,25.9374387 18.4672937,25.6894387 18.4672937,25.4194387 L18.4672937,22.1574387 C18.4672937,21.8734387 18.6012937,21.6174387 18.8352937,21.4564387 C19.0712937,21.2944387 19.3722937,21.2584387 19.6402937,21.3604387 C20.8902937,21.8374387 21.4972937,22.6194387 21.4972937,23.7514387 C21.4972937,24.9944387 20.8162937,25.8774387 19.5782937,26.2384387 C19.4952937,26.2624387 19.4112937,26.2744387 19.3282937,26.2744387 Z M12.3362937,23.7484387 C12.1092937,23.7484387 11.8972937,23.8494387 11.7552937,24.0264387 C11.6122937,24.2024387 11.5582937,24.4294387 11.6042937,24.6494387 C12.0262937,26.6184387 13.7182937,27.9514387 16.2452937,28.3064387 C16.6632938,28.3654387 16.9792937,28.7284387 16.9792937,29.1504387 L16.9792937,29.1734387 C16.9792937,29.5844387 17.3132937,29.9174387 17.7232937,29.9174387 C18.1332937,29.9174387 18.4672937,29.5844387 18.4672937,29.1734387 L18.4672937,29.1304387 C18.4672937,28.7124387 18.7792938,28.3494387 19.1922937,28.2874387 C22.1592937,27.8424387 23.8612938,26.1044387 23.8612938,23.5174387 C23.8612938,21.1354387 22.5052937,19.6874387 19.5952937,18.9604387 L19.1342937,18.8564387 C18.7412937,18.7674387 18.4672937,18.4234387 18.4672937,18.0214387 L18.4672937,14.5024387 C18.4672937,14.2024387 18.6202937,13.9284387 18.8752938,13.7684387 C19.1222938,13.6134387 19.4242937,13.5964387 19.6822937,13.7224387 C20.4362938,14.0904387 20.9602937,14.6974387 21.1572938,15.4334387 C21.2372937,15.7334387 21.5272937,15.9434387 21.8632938,15.9434387 L22.7172937,15.9434387 C22.9472938,15.9434387 23.1622937,15.8394387 23.3052938,15.6574387 C23.4462937,15.4794387 23.4962937,15.2534387 23.4462937,15.0354387 C23.0082937,13.1734387 21.4132938,11.8364387 19.1812937,11.4574387 C18.7672938,11.3864387 18.4672937,11.0324387 18.4672937,10.6164387 L18.4672937,10.4944387 C18.4672937,10.0844387 18.1332937,9.75043868 17.7232937,9.75043868 C17.3132937,9.75043868 16.9792937,10.0844387 16.9792937,10.4944387 L16.9792937,10.6184387 C16.9792937,11.0364387 16.6802937,11.3884387 16.2662937,11.4594387 C13.5252937,11.9224387 11.8892937,13.6364387 11.8892937,16.0464387 C11.8892937,18.2874387 13.2752937,19.8184387 15.8982937,20.4744387 L16.3382937,20.5884387 C16.7162937,20.6854387 16.9792937,21.0264387 16.9792937,21.4164387 L16.9792937,25.3234387 C16.9792937,25.6044387 16.8422937,25.8704387 16.6112937,26.0334387 C16.3892937,26.1894387 16.1192937,26.2294387 15.8692937,26.1404387 C14.8952937,25.7964387 14.2202937,25.1284387 13.9692937,24.2594387 C13.8822937,23.9594387 13.5922937,23.7484387 13.2642937,23.7484387 L12.3362937,23.7484387 Z M17.7232937,30.0294387 C17.2512937,30.0294387 16.8682937,29.6454387 16.8682937,29.1734387 L16.8682937,29.1504387 C16.8682937,28.7834387 16.5932937,28.4684387 16.2292937,28.4174387 C13.6532937,28.0544387 11.9272937,26.6894387 11.4962937,24.6734387 C11.4412937,24.4204387 11.5042937,24.1584387 11.6672937,23.9564387 C11.8322937,23.7534387 12.0752937,23.6364387 12.3362937,23.6364387 L13.2642937,23.6364387 C13.6422937,23.6364387 13.9762937,23.8804387 14.0772937,24.2284387 C14.3172937,25.0614387 14.9672937,25.7034387 15.9062937,26.0344387 C16.1212937,26.1104387 16.3542937,26.0774387 16.5462937,25.9414387 C16.7472937,25.7984387 16.8682937,25.5684387 16.8682937,25.3234387 L16.8682937,21.4164387 C16.8682937,21.0774387 16.6382937,20.7814387 16.3102937,20.6964387 L15.8702937,20.5834387 C13.2312937,19.9234387 11.7772937,18.3114387 11.7772937,16.0464387 C11.7772937,13.5774387 13.4482937,11.8214387 16.2472937,11.3484387 C16.6072937,11.2874387 16.8682937,10.9804387 16.8682937,10.6184387 L16.8682937,10.4944387 C16.8682937,10.0224387 17.2512937,9.63843868 17.7232937,9.63843868 C18.1952937,9.63843868 18.5792937,10.0224387 18.5792937,10.4944387 L18.5792937,10.6164387 C18.5792937,10.9784387 18.8402938,11.2854387 19.2002938,11.3464387 C21.4782937,11.7334387 23.1062937,13.1024387 23.5542937,15.0094387 C23.6142938,15.2604387 23.5552938,15.5224387 23.3922938,15.7264387 C23.2282937,15.9354387 22.9812937,16.0544387 22.7172937,16.0544387 L21.8632938,16.0544387 C21.4772938,16.0544387 21.1422938,15.8104387 21.0492938,15.4624387 C20.8602937,14.7574387 20.3572937,14.1754387 19.6332937,13.8234387 C19.4102937,13.7154387 19.1492937,13.7294387 18.9342937,13.8634387 C18.7122937,14.0034387 18.5792937,14.2414387 18.5792937,14.5024387 L18.5792937,18.0214387 C18.5792937,18.3724387 18.8172937,18.6704387 19.1592937,18.7474387 L19.6212937,18.8514387 C22.5902938,19.5924387 23.9732937,21.0764387 23.9732937,23.5174387 C23.9732937,26.1654387 22.2362938,27.9444387 19.2092938,28.3984387 C18.8502937,28.4524387 18.5792937,28.7664387 18.5792937,29.1304387 L18.5792937,29.1734387 C18.5792937,29.6454387 18.1952937,30.0294387 17.7232937,30.0294387 Z" id="Fill-6" fill="#FEFEFE"></path>
                </g>
            </g>
        </g>
    </g>
</svg>