<?xml version="1.0" encoding="UTF-8" standalone="no"?>
<svg width="37px" height="36px" viewBox="0 0 37 36" version="1.1" xmlns="http://www.w3.org/2000/svg" xmlns:xlink="http://www.w3.org/1999/xlink">
    <!-- Generator: Sketch 48.2 (47327) - http://www.bohemiancoding.com/sketch -->
    <title>end toend</title>
    <desc>Created with Sketch.</desc>
    <defs>
        <polygon id="path-1" points="0 35.9998 0 0.668 35.332 0.668 35.332 35.9998"></polygon>
    </defs>
    <g id="Desktop-HD-Copy" stroke="none" stroke-width="1" fill="none" fill-rule="evenodd" transform="translate(-1011.000000, -1943.000000)">
        <g id="hanzo" transform="translate(0.000000, 1408.000000)">
            <g id="End-to-end" transform="translate(1011.000000, 534.000000)">
                <g id="end-toend">
                    <g id="Group-3" stroke-width="1" transform="translate(0.806641, 0.720364)">
                        <mask id="mask-2" fill="white">
                            <use xlink:href="#path-1"></use>
                        </mask>
                        <g id="Clip-2"></g>
                        <path d="M35.3324,18.3338 C35.3324,28.0908 27.4224,35.9998 17.6654,35.9998 C7.9094,35.9998 -0.0006,28.0908 -0.0006,18.3338 C-0.0006,8.5768 7.9094,0.6678 17.6654,0.6678 C27.4224,0.6678 35.3324,8.5768 35.3324,18.3338" id="Fill-1" fill="#EEB85E" mask="url(#mask-2)"></path>
                    </g>
                    <path d="M30.7376406,19.5345637 L27.3536406,16.1505637 C27.1606406,15.9585637 26.8476406,15.9585637 26.6546406,16.1505637 L23.2716406,19.5345637 L24.7966406,19.5345637 C25.0966406,19.5345637 25.3396406,19.8015637 25.2866406,20.0965637 C24.7146406,23.2975637 21.9116406,25.7355637 18.5476406,25.7355637 C16.8766406,25.7355637 15.2976406,25.1415637 14.0506406,24.0545637 C13.8516406,23.8805637 13.5576406,23.8785637 13.3706406,24.0645637 L11.5276406,25.9075637 C11.3296406,26.1055637 11.3296406,26.4375637 11.5376406,26.6265637 C13.4616406,28.3725637 15.9306406,29.3285637 18.5476406,29.3285637 C23.9346406,29.3285637 28.3696406,25.2245637 28.9186406,19.9815637 C28.9456406,19.7285637 29.1496406,19.5345637 29.4026406,19.5345637 L30.7376406,19.5345637 Z" id="Fill-4" fill="#FEFEFE"></path>
                    <path d="M12.2328406,18.7484637 C11.9478406,18.7484637 11.7088406,18.5064637 11.7368406,18.2224637 C12.0718406,14.7574637 14.9958406,12.0384637 18.5468406,12.0384637 C19.9458406,12.0384637 21.2728406,12.4494637 22.4108406,13.2304637 C22.6288406,13.3804637 22.9198406,13.3484637 23.0838406,13.1424637 L24.7018406,11.0964637 C24.8758406,10.8764637 24.8368406,10.5484637 24.6088406,10.3854637 C22.8348406,9.11446368 20.7498406,8.44546368 18.5468406,8.44546368 C12.9958406,8.44546368 8.44784062,12.8024637 8.12984062,18.2764637 C8.11484062,18.5394637 7.90584062,18.7484637 7.64184062,18.7484637 L6.20584062,18.7484637 L9.58984062,22.1324637 C9.78284062,22.3254637 10.0958406,22.3254637 10.2888406,22.1324637 L13.6718406,18.7484637 L12.2328406,18.7484637 Z" id="Fill-6" fill="#FEFEFE"></path>
                </g>
            </g>
        </g>
    </g>
</svg>