<?xml version="1.0" encoding="UTF-8" standalone="no"?>
<svg width="29px" height="39px" viewBox="0 0 29 39" version="1.1" xmlns="http://www.w3.org/2000/svg" xmlns:xlink="http://www.w3.org/1999/xlink">
    <!-- Generator: Sketch 48.2 (47327) - http://www.bohemiancoding.com/sketch -->
    <title>Page 1 Copy 5</title>
    <desc>Created with Sketch.</desc>
    <defs>
        <polygon id="path-1" points="12.0253887 23.321841 0.213844472 23.321841 0.213844472 0.308295113 12.0253887 0.308295113 12.0253887 23.321841"></polygon>
    </defs>
    <g id="Tablet-Portrait" stroke="none" stroke-width="1" fill="none" fill-rule="evenodd" transform="translate(-31.000000, -1050.000000)">
        <g id="Page-1-Copy-5" transform="translate(31.014868, 1050.450406)">
            <g id="Group-3" transform="translate(7.996060, 14.899658)">
                <mask id="mask-2" fill="white">
                    <use xlink:href="#path-1"></use>
                </mask>
                <g id="Clip-2"></g>
                <path d="M2.02930002,23.2186919 L5.74280345,21.7190975 C6.09696227,21.5758347 6.50542765,21.584164 6.85258992,21.7410866 L10.0460163,23.1840423 C10.8979298,23.5688526 11.9051002,23.0197899 11.9097646,22.1682095 L12.0253743,1.51338758 C12.0287059,0.880033013 11.4563213,0.363287649 10.7470042,0.359622789 L1.62050147,0.308314738 C0.911517498,0.304649878 0.333135841,0.814731858 0.32947098,1.44808643 L0.213861282,22.1665437 C0.209196914,23.0027982 1.17605381,23.5631888 2.02930002,23.2186919" id="Fill-1" fill="#A17DB7" mask="url(#mask-2)"></path>
            </g>
            <g id="Group-6" transform="translate(0.000000, 0.240215)" fill="#ECB75F">
                <path d="M13.4198538,23.5453642 L7.0126777,26.9140376 C5.91588483,27.4907534 4.63351674,26.5592124 4.84308014,25.3378143 L6.06681046,18.2033299 C6.15010275,17.7182357 5.98918204,17.2231463 5.63702225,16.8796489 L0.453243322,11.8268054 C-0.434319314,10.9618983 0.0554393478,9.45497421 1.28150185,9.27672871 L8.44530507,8.23590826 C8.93239838,8.16494323 9.3535242,7.85909394 9.57108366,7.41797798 L12.7748383,0.92651011 C13.3232347,-0.184942199 14.9081204,-0.184942199 15.4561837,0.92651011 L18.6602714,7.41797798 C18.8778309,7.85909394 19.2989567,8.16494323 19.7857169,8.23590826 L26.9491869,9.27672871 C28.1755826,9.45497421 28.6653412,10.9618983 27.7781118,11.8268054 L22.5943329,16.8796489 C22.2418399,17.2231463 22.0812524,17.7182357 22.1642115,18.2033299 L23.3879418,25.3378143 C23.5975052,26.5592124 22.3154703,27.4907534 21.2186774,26.9140376 L14.8115013,23.5453642 C14.3757161,23.316477 13.855639,23.316477 13.4198538,23.5453642" id="Fill-4"></path>
            </g>
        </g>
    </g>
</svg>