<?xml version="1.0" encoding="UTF-8" standalone="no"?>
<svg width="36px" height="27px" viewBox="0 0 36 27" version="1.1" xmlns="http://www.w3.org/2000/svg" xmlns:xlink="http://www.w3.org/1999/xlink">
    <!-- Generator: Sketch 48.2 (47327) - http://www.bohemiancoding.com/sketch -->
    <title>Page 1 Copy 2</title>
    <desc>Created with Sketch.</desc>
    <defs>
        <polygon id="path-1" points="14.4119492 0.106055336 14.4119492 14.4500553 0.0677814608 14.4500553 0.0677814608 0.106055336"></polygon>
    </defs>
    <g id="Tablet-Portrait" stroke="none" stroke-width="1" fill="none" fill-rule="evenodd" transform="translate(-28.000000, -796.000000)">
        <g id="Page-1-Copy-2" transform="translate(26.514868, 793.718960)">
            <g id="Group-3" transform="translate(0.279660, 0.180552)" fill="#FE98B0">
                <path d="M19.3840832,28.2945624 C22.7838659,25.3343433 31.9392504,18.356008 33.9840625,12.3183179 C36.0338696,6.26590549 25.2167138,-1.83342215 18.4174113,8.72320279 C11.6181089,-1.83342215 0.474960929,5.00478907 2.8507602,12.3183179 C4.82038376,18.3809832 14.0512197,25.3343433 17.4507394,28.2945624 C18.0049261,28.7772411 18.8301595,28.7772411 19.3840832,28.2945624 Z" id="Fill-1" transform="translate(18.381281, 15.974478) rotate(-11.000000) translate(-18.381281, -15.974478) "></path>
            </g>
            <g id="Group-6" transform="translate(22.617777, 9.977776)">
                <mask id="mask-2" fill="white">
                    <use xlink:href="#path-1"></use>
                </mask>
                <g id="Clip-5"></g>
                <path d="M7.23978145,14.4500553 C3.28509393,14.4500553 0.0677814608,11.2327428 0.0677814608,7.27805533 C0.0677814608,3.32336781 3.28509393,0.106055336 7.23978145,0.106055336 C11.194469,0.106055336 14.4119912,3.32336781 14.4119912,7.27805533 C14.4119912,11.2327428 11.194469,14.4500553 7.23978145,14.4500553" id="Fill-4" fill="#FEFEFE" mask="url(#mask-2)"></path>
            </g>
            <path d="M29.8524163,10.9856542 C26.3960514,10.9856542 23.5841977,13.7977356 23.5841977,17.2538728 C23.5841977,20.7104654 26.3960514,23.5223191 29.8524163,23.5223191 C33.3087812,23.5223191 36.1208626,20.7104654 36.1208626,17.2538728 C36.1208626,13.7977356 33.3087812,10.9856542 29.8524163,10.9856542 M29.8524163,24.541562 C25.8341815,24.541562 22.5649548,21.2723353 22.5649548,17.2538728 C22.5649548,13.235638 25.8341815,9.96641129 29.8524163,9.96641129 C33.8708788,9.96641129 37.1401055,13.235638 37.1401055,17.2538728 C37.1401055,21.2723353 33.8708788,24.541562 29.8524163,24.541562" id="Fill-7" fill="#ECB75F"></path>
            <path d="M29.8524163,22.289165 C27.0760779,22.289165 24.8172152,20.0303023 24.8172152,17.2539639 C24.8172152,14.4773978 27.0760779,12.2187628 29.8524163,12.2187628 C32.6289824,12.2187628 34.8878451,14.4773978 34.8878451,17.2539639 C34.8878451,20.0303023 32.6289824,22.289165 29.8524163,22.289165" id="Fill-9" fill="#ECB75F"></path>
            <path d="M30.1249733,17.7888331 L30.1249733,18.5314666 C30.1249733,18.6541764 30.2435852,18.740005 30.3615141,18.7056281 C30.6365299,18.625491 30.7895187,18.4303847 30.7895187,18.1517263 C30.7895187,17.9001598 30.6583854,17.7273643 30.3747185,17.6194525 C30.254513,17.5734648 30.1249733,17.660204 30.1249733,17.7888331 M29.7609417,16.6669146 L29.7609417,16.0315099 C29.7609417,15.8990106 29.6238892,15.811133 29.5030006,15.8655442 C29.3017474,15.9554707 29.1708417,16.1362344 29.1708417,16.3575219 C29.1708417,16.5710689 29.2855834,16.7317983 29.50209,16.8328802 C29.6222955,16.8891127 29.7609417,16.7996415 29.7609417,16.6669146 M29.7609417,19.3863375 L29.7609417,19.3808736 C29.7609417,19.2904918 29.6940091,19.2139974 29.6045379,19.201476 C29.0269593,19.1202006 28.6342423,18.8105802 28.537486,18.3588988 C28.5131261,18.2455231 28.6005483,18.1382943 28.7164283,18.1382943 L28.9276987,18.1382943 C29.0064697,18.1382943 29.0786386,18.1883799 29.1004942,18.2639637 C29.1569543,18.4588424 29.306073,18.6061397 29.5250838,18.6837725 C29.6405085,18.7242963 29.7609417,18.6320932 29.7609417,18.509611 L29.7609417,17.6203632 C29.7609417,17.5372665 29.7047092,17.4646423 29.6243445,17.4439251 L29.5241732,17.4179716 C28.928837,17.2693083 28.6019143,16.9130172 28.6019143,16.3975904 C28.6019143,15.8352652 28.979378,15.4468738 29.6090911,15.3405556 C29.6965133,15.3259852 29.7609417,15.2506291 29.7609417,15.1618409 L29.7609417,15.1336108 C29.7609417,15.0332119 29.8424447,14.9514812 29.9428437,14.9514812 C30.0434703,14.9514812 30.1249733,15.0332119 30.1249733,15.1336108 L30.1249733,15.1613856 C30.1249733,15.2501738 30.1894016,15.3253023 30.2770515,15.3401003 C30.7979422,15.4288885 31.1571929,15.7357769 31.2580472,16.1644645 C31.2849113,16.2780678 31.1963508,16.3868903 31.0797878,16.3868903 L30.8853645,16.3868903 C30.8065934,16.3868903 30.7326032,16.33726 30.7123413,16.2612209 C30.6684025,16.0970765 30.5507013,15.9616176 30.383142,15.879887 C30.2638471,15.8218331 30.1249733,15.9133533 30.1249733,16.0460802 L30.1249733,16.8472229 C30.1249733,16.9323685 30.1839378,17.006131 30.2670344,17.025027 L30.3722143,17.0487038 C31.0312958,17.2133035 31.3529823,17.54569 31.3529823,18.0984534 C31.3529823,18.7003918 30.9627696,19.0944748 30.2793281,19.1971504 C30.1907676,19.2103548 30.1249733,19.2866216 30.1249733,19.3763204 L30.1249733,19.3863375 C30.1249733,19.4867365 30.0434703,19.5682395 29.9428437,19.5682395 C29.8424447,19.5682395 29.7609417,19.4867365 29.7609417,19.3863375" id="Fill-11" fill="#FEFEFE"></path>
            <path d="M29.5781746,15.8621521 C29.5544978,15.8621521 29.5305933,15.866933 29.5080547,15.8769501 C29.3047525,15.9680149 29.1836363,16.1476403 29.1836363,16.3575447 C29.1836363,16.5649448 29.2926864,16.7208933 29.5075994,16.8215199 C29.559734,16.845652 29.6200644,16.8417818 29.6690118,16.8103644 C29.7186421,16.7789471 29.7482382,16.7254465 29.7482382,16.667165 L29.7482382,16.0315326 C29.7482382,15.9739341 29.7193251,15.9208889 29.6708331,15.8894715 C29.6428306,15.8712586 29.6105026,15.8621521 29.5781746,15.8621521 Z M29.5781746,16.8627267 C29.5506275,16.8627267 29.5228528,16.8565798 29.4968993,16.8442861 C29.2751565,16.7409275 29.1581382,16.5726853 29.1581382,16.3575447 C29.1581382,16.1373955 29.2849459,15.949119 29.4975823,15.8537286 C29.5588234,15.8264091 29.6287156,15.831873 29.6847205,15.8680713 C29.74027,15.9042696 29.7735086,15.965283 29.7735086,16.0315326 L29.7735086,16.667165 C29.7735086,16.7340977 29.739587,16.7957941 29.6828992,16.8319923 C29.6507988,16.8524819 29.6146006,16.8627267 29.5781746,16.8627267 Z M30.3082868,17.6199306 C30.2739098,17.6199306 30.2397605,17.6301754 30.2106197,17.6502097 C30.1644044,17.6818547 30.1377679,17.7326233 30.1377679,17.7888558 L30.1377679,18.5314894 C30.1377679,18.5847623 30.1621277,18.6339373 30.2049282,18.66581 C30.2490946,18.6990486 30.3048718,18.7090658 30.3579171,18.6935847 C30.6279242,18.6148137 30.7768152,18.4222116 30.7768152,18.1517491 C30.7768152,17.9024592 30.6475032,17.7369489 30.3702108,17.6313137 C30.3501766,17.6235732 30.329004,17.6199306 30.3082868,17.6199306 Z M30.3082868,18.7261404 C30.2659416,18.7261404 30.2245071,18.7127083 30.1896748,18.6862995 C30.1404998,18.6494183 30.1122697,18.5929581 30.1122697,18.5314894 L30.1122697,17.7888558 C30.1122697,17.7241998 30.1427765,17.6659183 30.196277,17.6292647 C30.2497776,17.5923835 30.3183039,17.5841877 30.3793173,17.6074092 C30.6638948,17.716004 30.8020857,17.8940357 30.8020857,18.1517491 C30.8020857,18.434733 30.6470479,18.6357586 30.3652023,18.7179446 C30.3463063,18.7234085 30.3271827,18.7261404 30.3082868,18.7261404 Z M28.7164738,18.1510661 C28.6647946,18.1510661 28.6167579,18.17406 28.5842022,18.2143562 C28.5516465,18.2544247 28.5393528,18.306104 28.5500529,18.3561896 C28.6458986,18.8044561 29.0311028,19.1079296 29.6064047,19.1887496 C29.7015674,19.2021817 29.7735086,19.284823 29.7735086,19.3808964 L29.7735086,19.3861326 C29.7735086,19.4797017 29.8495478,19.5555132 29.9428892,19.5555132 C30.0362306,19.5555132 30.1122697,19.4797017 30.1122697,19.3861326 L30.1122697,19.3763432 C30.1122697,19.2811804 30.1833003,19.1985391 30.2773247,19.1844241 C30.952798,19.0831145 31.3402787,18.6874379 31.3402787,18.0984762 C31.3402787,17.5561852 31.031569,17.2265306 30.3690725,17.0610203 L30.2641203,17.0373435 C30.1746491,17.0170816 30.1122697,16.9387658 30.1122697,16.8472457 L30.1122697,16.046103 C30.1122697,15.9778044 30.147102,15.915425 30.2051559,15.8789991 C30.2613884,15.8437115 30.3301423,15.8398412 30.3888791,15.8685266 C30.5605363,15.9523062 30.6798312,16.0904971 30.7246806,16.2580563 C30.7428936,16.326355 30.8091432,16.374164 30.88541,16.374164 L31.0798334,16.374164 C31.1321956,16.374164 31.181143,16.3504871 31.2136986,16.3090526 C31.245799,16.2685288 31.2571821,16.2170772 31.245799,16.1674469 C31.146083,15.7435402 30.7829621,15.439156 30.2748204,15.3528721 C30.1805684,15.3367081 30.1122697,15.2561158 30.1122697,15.1614084 L30.1122697,15.1336336 C30.1122697,15.0402922 30.0362306,14.964253 29.9428892,14.964253 C29.8495478,14.964253 29.7735086,15.0402922 29.7735086,15.1336336 L29.7735086,15.1618637 C29.7735086,15.2570264 29.7054377,15.3371634 29.6111856,15.3533274 C28.987164,15.458735 28.6147089,15.8489477 28.6147089,16.3976132 C28.6147089,16.9078038 28.9302485,17.2563543 29.527406,17.4057006 L29.6275773,17.4316541 C29.7136335,17.4537373 29.7735086,17.5313701 29.7735086,17.6201583 L29.7735086,18.5096338 C29.7735086,18.5736068 29.7423189,18.6341649 29.689729,18.6712739 C29.6391881,18.7067891 29.5777193,18.7158956 29.5208038,18.6956337 C29.299061,18.617318 29.1453891,18.4652397 29.0882459,18.2674014 C29.0684393,18.1991028 29.0024174,18.1510661 28.9277442,18.1510661 L28.7164738,18.1510661 Z M29.9428892,19.5810113 C29.8354327,19.5810113 29.7482382,19.4935891 29.7482382,19.3861326 L29.7482382,19.3808964 C29.7482382,19.2973444 29.6856311,19.2256309 29.6027621,19.2140201 C29.0163047,19.1313788 28.6233601,18.8206201 28.5252377,18.3616535 C28.5127163,18.304055 28.527059,18.2444076 28.5643956,18.1984198 C28.6017322,18.1522044 28.6572817,18.125568 28.7164738,18.125568 L28.9277442,18.125568 C29.0138005,18.125568 29.0898396,18.1811175 29.1128334,18.2603439 C29.1674723,18.4499864 29.3154526,18.5961454 29.5292273,18.6715015 C29.5781746,18.6888038 29.6312199,18.681291 29.674931,18.6503289 C29.7206911,18.6177733 29.7482382,18.565411 29.7482382,18.5096338 L29.7482382,17.6201583 C29.7482382,17.5429808 29.6958759,17.4755929 29.6212028,17.4562416 L29.5212591,17.4305158 C28.9202314,17.2802589 28.5892108,16.9132677 28.5892108,16.3976132 C28.5892108,15.8355156 28.969634,15.4357411 29.60686,15.328057 C29.6888184,15.3141696 29.7482382,15.2442773 29.7482382,15.1618637 L29.7482382,15.1336336 C29.7482382,15.0261771 29.8354327,14.9387549 29.9428892,14.9387549 C30.0503457,14.9387549 30.1377679,15.0261771 30.1377679,15.1336336 L30.1377679,15.1614084 C30.1377679,15.243822 30.1971877,15.3137143 30.279146,15.3276016 C30.7977601,15.4157068 31.1683939,15.7273762 31.2706141,16.1615276 C31.2840462,16.2186708 31.2706141,16.2783183 31.2335052,16.3247613 C31.1961687,16.3723427 31.1399361,16.3994345 31.0798334,16.3994345 L30.88541,16.3994345 C30.7975325,16.3994345 30.7212657,16.3438849 30.7000931,16.2646585 C30.657065,16.1041568 30.542551,15.9716575 30.3777237,15.8915205 C30.326955,15.866933 30.2675352,15.8701203 30.2185879,15.900627 C30.1680469,15.9324996 30.1377679,15.9866832 30.1377679,16.046103 L30.1377679,16.8472457 C30.1377679,16.9271551 30.1919515,16.9949983 30.2698119,17.0125283 L30.3749917,17.0362052 C31.0509203,17.2049027 31.3657769,17.5427532 31.3657769,18.0984762 C31.3657769,18.7013252 30.9703279,19.106336 30.281195,19.2096946 C30.1994643,19.2219883 30.1377679,19.2934742 30.1377679,19.3763432 L30.1377679,19.3861326 C30.1377679,19.4935891 30.0503457,19.5810113 29.9428892,19.5810113 Z" id="Fill-13" fill="#FEFEFE"></path>
        </g>
    </g>
</svg>