<?xml version="1.0" encoding="UTF-8" standalone="no"?>
<svg width="33px" height="27px" viewBox="0 0 33 27" version="1.1" xmlns="http://www.w3.org/2000/svg" xmlns:xlink="http://www.w3.org/1999/xlink">
    <!-- Generator: Sketch 48.2 (47327) - http://www.bohemiancoding.com/sketch -->
    <title>Page 1 Copy 4</title>
    <desc>Created with Sketch.</desc>
    <defs></defs>
    <g id="Tablet-Portrait" stroke="none" stroke-width="1" fill="none" fill-rule="evenodd" transform="translate(-29.000000, -971.000000)">
        <g id="Page-1-Copy-4" transform="translate(29.014868, 971.381070)">
            <path d="M25.7666015,26.3187434 C25.7666015,26.3187434 28.0261422,25.3071171 28.0261422,24.0592027 L28.0261422,12.578913 C28.0261422,6.38607625 24.155837,-8.70840454e-05 16.2213193,-8.70840454e-05 L16.608553,-8.70840454e-05 C8.67403537,-8.70840454e-05 4.80373011,6.38607625 4.80373011,12.578913 L4.80373011,24.0592027 C4.80373011,25.3071171 7.06327081,26.3187434 7.06327081,26.3187434 L25.7666015,26.3187434 Z" id="Fill-1" fill="#939597"></path>
            <path d="M11.4134672,12.0108347 C11.4134672,12.1940015 11.5618004,12.3423347 11.7449671,12.3423347 L12.342654,12.3423347 C12.8547082,12.3423347 13.1476008,12.0613435 13.1476008,11.572802 C13.1476008,11.0964523 12.8370011,10.8064624 12.3249469,10.8064624 L11.7449671,10.8064624 C11.5618004,10.8064624 11.4134672,10.9547955 11.4134672,11.137672 L11.4134672,12.0108347 Z M11.0819673,14.5205969 C10.8990908,14.5205969 10.7504673,14.3719735 10.7504673,14.189097 L10.7504673,10.5814953 C10.7504673,10.3983285 10.8990908,10.2502856 11.0819673,10.2502856 L12.4047739,10.2502856 C13.2837422,10.2502856 13.8312106,10.7591467 13.8312106,11.5550949 C13.8312106,12.0230265 13.6288853,12.4186784 13.2750338,12.6450969 C13.1307646,12.7371157 13.086642,12.9275395 13.1687913,13.0779046 L13.6898442,14.0297332 C13.810891,14.2506364 13.6509466,14.5205969 13.3992737,14.5205969 L13.394339,14.5205969 C13.2715505,14.5205969 13.1589218,14.4523811 13.1014463,14.3441066 L12.4184171,13.0543919 C12.3609416,12.9458271 12.2480227,12.8779016 12.1255244,12.8779016 L11.7449671,12.8779016 C11.5618004,12.8779016 11.4134672,13.0262347 11.4134672,13.2094015 L11.4134672,14.189097 C11.4134672,14.3719735 11.2651341,14.5205969 11.0819673,14.5205969 Z" id="Fill-3" fill="#F0F0F1"></path>
            <path d="M16.0463094,14.189068 L16.0463094,10.5814662 C16.0463094,10.3982995 16.1946426,10.2502566 16.3778093,10.2502566 C16.5606858,10.2502566 16.7093093,10.3982995 16.7093093,10.5814662 L16.7093093,14.189068 C16.7093093,14.3719445 16.5606858,14.5205679 16.3778093,14.5205679 C16.1946426,14.5205679 16.0463094,14.3719445 16.0463094,14.189068" id="Fill-5" fill="#F0F0F1"></path>
            <path d="M19.7354798,12.1735368 C19.7354798,12.3567035 19.883813,12.5050367 20.0669798,12.5050367 L20.4960138,12.5050367 C21.0730908,12.5050367 21.4013976,12.1941467 21.4013976,11.655677 C21.4013976,11.1172073 21.0730908,10.8095103 20.4989166,10.8095103 L20.0669798,10.8095103 C19.883813,10.8095103 19.7354798,10.9578435 19.7354798,11.14072 L19.7354798,12.1735368 Z M20.673375,10.2501405 C21.5021248,10.2501405 22.0792018,10.8211215 22.0792018,11.6527742 C22.0792018,12.4873296 21.4902234,13.0615037 20.6527651,13.0615037 L20.0669798,13.0615037 C19.883813,13.0615037 19.7354798,13.2095466 19.7354798,13.3927134 L19.7354798,14.1889519 C19.7354798,14.3718284 19.5871467,14.5204518 19.4039799,14.5204518 C19.2211034,14.5204518 19.07248,14.3718284 19.07248,14.1889519 L19.07248,10.5816404 C19.07248,10.3984736 19.2211034,10.2501405 19.4039799,10.2501405 L20.673375,10.2501405 Z" id="Fill-7" fill="#F0F0F1"></path>
            <path d="M6.11556417,26.3187434 L5.3971208,26.3187434 C5.3971208,26.3187434 4.80552985,21.4217172 2.96660509,18.6576696 C1.64960404,16.677959 0.364243534,15.8901387 0.351471207,15.8825914 C0.00806978821,15.6759119 -0.102526949,15.2297513 0.104152518,14.8863499 C0.310831986,14.5432388 0.756702299,14.4320615 1.10010372,14.6393215 C1.16396535,14.6773482 2.67951802,15.6059544 4.17504136,17.8538839 C6.20206766,20.9006644 6.83574923,26.3187434 6.83574923,26.3187434 L6.21280802,26.3187434 L6.11556417,26.3187434 Z" id="Fill-9" fill="#5CBF94"></path>
            <path d="M5.66780704,26.3187434 L5.02135314,26.3187434 C5.02135314,26.3187434 2.68982297,21.5732435 1.79895318,20.7291088 C1.50780219,20.4536329 1.49532014,19.9944097 1.77108629,19.7032588 C2.04685243,19.412398 2.50607563,19.4002063 2.79693634,19.6756821 C4.02859502,20.8423181 6.08290766,24.8130603 6.31309982,25.2618334 C6.49597631,25.6185877 5.99843613,26.3187434 5.99843613,26.3187434 L5.66780704,26.3187434 Z" id="Fill-11" fill="#5CBF94"></path>
            <path d="M26.3322705,26.3187434 L26.2350266,26.3187434 L25.6120854,26.3187434 C25.6120854,26.3187434 26.245767,20.9006644 28.2727933,17.8538839 C29.7683166,15.6059544 31.2841596,14.6773482 31.3477309,14.6393215 C31.6911323,14.4320615 32.1372929,14.5432388 32.3436821,14.8863499 C32.5506519,15.2300416 32.4400551,15.6759119 32.0963634,15.8825914 C32.0859133,15.8889776 30.7822652,16.7020523 29.4812295,18.6576696 C27.6423048,21.4217172 27.0507138,26.3187434 27.0507138,26.3187434 L26.3322705,26.3187434 Z" id="Fill-13" fill="#5CBF94"></path>
            <path d="M26.7800276,26.3187434 L26.4493985,26.3187434 C26.4493985,26.3187434 25.9518583,25.6185877 26.1347348,25.2618334 C26.364927,24.8130603 28.4192396,20.8423181 29.6508983,19.6756821 C29.941759,19.4002063 30.4009822,19.412398 30.6767483,19.7032588 C30.9525145,19.9944097 30.9400324,20.4536329 30.6488814,20.7291088 C29.7580117,21.5732435 27.4264815,26.3187434 27.4264815,26.3187434 L26.7800276,26.3187434 Z" id="Fill-15" fill="#5CBF94"></path>
            <path d="M7.06237094,26.3187434 L6.34857205,26.3187434 C6.34857205,26.3187434 6.65713985,20.9166298 6.68645815,20.8031302 C6.78631452,20.415316 7.18254693,20.1819307 7.56949037,20.2812065 C7.95759493,20.3807726 8.19156073,20.7761342 8.09199464,21.1642388 C8.08589876,21.1892028 7.77791152,26.3187434 7.77791152,26.3187434 L7.18835253,26.3187434 L7.06237094,26.3187434 Z" id="Fill-17" fill="#5CBF94"></path>
            <path d="M25.3341422,26.3187434 L25.2081606,26.3187434 L24.6186016,26.3187434 C24.6186016,26.3187434 24.3106143,21.1892028 24.3045185,21.1642388 C24.2049524,20.7761342 24.4389182,20.3807726 24.8270227,20.2812065 C25.214837,20.1819307 25.6104889,20.415316 25.710055,20.8031302 C25.7393732,20.9166298 26.047941,26.3187434 26.047941,26.3187434 L25.3341422,26.3187434 Z" id="Fill-19" fill="#5CBF94"></path>
        </g>
    </g>
</svg>