<?xml version="1.0" encoding="UTF-8" standalone="no"?>
<svg width="33px" height="33px" viewBox="0 0 33 33" version="1.1" xmlns="http://www.w3.org/2000/svg" xmlns:xlink="http://www.w3.org/1999/xlink">
    <!-- Generator: Sketch 48.2 (47327) - http://www.bohemiancoding.com/sketch -->
    <title>Page 1 Copy</title>
    <desc>Created with Sketch.</desc>
    <defs>
        <polygon id="path-1" points="0 0.050422362 0 26.4117134 13.1806783 26.4117134 26.3613566 26.4117134 26.3613566 0.050422362 0 0.050422362"></polygon>
    </defs>
    <g id="Tablet-Portrait" stroke="none" stroke-width="1" fill="none" fill-rule="evenodd" transform="translate(-29.000000, -711.000000)">
        <g id="Page-1-Copy" transform="translate(29.514868, 711.318942)">
            <g id="Group-3" transform="translate(0.000000, 5.475628)">
                <mask id="mask-2" fill="white">
                    <use xlink:href="#path-1"></use>
                </mask>
                <g id="Clip-2"></g>
                <path d="M13.1806019,24.1197879 C7.17652093,24.1197879 2.29188189,19.2351489 2.29188189,13.2310679 C2.29188189,7.22709608 7.17652093,2.34234791 13.1806019,2.34234791 C19.1846828,2.34234791 24.069431,7.22709608 24.069431,13.2310679 C24.069431,19.2351489 19.1846828,24.1197879 13.1806019,24.1197879 M13.1806019,0.050422362 C5.91279684,0.050422362 -4.36557247e-05,5.96326285 -4.36557247e-05,13.2310679 C-4.36557247e-05,20.4988729 5.91279684,26.4117134 13.1806019,26.4117134 C20.4485161,26.4117134 26.3613566,20.4988729 26.3613566,13.2310679 C26.3613566,5.96326285 20.4485161,0.050422362 13.1806019,0.050422362" id="Fill-1" fill="#ECB75F" mask="url(#mask-2)"></path>
            </g>
            <path d="M13.1806019,25.5958425 C9.38200814,25.5958425 6.29151025,22.5054538 6.29151025,18.7067509 C6.29151025,14.908048 9.38200814,11.8176592 13.1806019,11.8176592 C16.9793048,11.8176592 20.0696935,14.908048 20.0696935,18.7067509 C20.0696935,22.5054538 16.9793048,25.5958425 13.1806019,25.5958425 M13.1806019,9.5257337 C8.11817491,9.5257337 3.9995847,13.6443239 3.9995847,18.7067509 C3.9995847,23.7691779 8.11817491,27.8877681 13.1806019,27.8877681 C18.2430289,27.8877681 22.3616191,23.7691779 22.3616191,18.7067509 C22.3616191,13.6443239 18.2430289,9.5257337 13.1806019,9.5257337" id="Fill-4" fill="#ECB75F"></path>
            <path d="M13.1806019,21.4939506 C11.6437021,21.4939506 10.3934021,20.2436507 10.3934021,18.7067509 C10.3934021,17.1698511 11.6437021,15.919442 13.1806019,15.919442 C14.7175017,15.919442 15.9679108,17.1698511 15.9679108,18.7067509 C15.9679108,20.2436507 14.7175017,21.4939506 13.1806019,21.4939506 M13.1806019,13.7366558 C10.4402229,13.7366558 8.21061591,15.9662628 8.21061591,18.7067509 C8.21061591,21.4471299 10.4402229,23.6767369 13.1806019,23.6767369 C15.92109,23.6767369 18.150697,21.4471299 18.150697,18.7067509 C18.150697,15.9662628 15.92109,13.7366558 13.1806019,13.7366558" id="Fill-6" fill="#ECB75F"></path>
            <path d="M23.2883428,4.42281604 C23.2816853,4.42958268 23.2823401,4.42903698 23.2883428,4.42314346 L23.2883428,4.42281604 Z" id="Fill-8" fill="#A17DB7"></path>
            <path d="M31.400897,3.54639462 L28.1663352,3.54639462 L28.1663352,0.272324411 C28.1663352,0.031563089 27.8767886,-0.0904546616 27.7052216,0.078492993 C26.7036502,1.06413012 24.3559545,3.37460935 23.5562907,4.16030325 C23.3847237,4.32892349 23.2883537,4.5590983 23.2883537,4.79964134 L23.2883537,7.149629 L12.6911448,17.7467288 C12.2649558,18.1730269 12.2649558,18.864097 12.6911448,19.290286 C12.9042939,19.503326 13.1835814,19.6099551 13.462978,19.6099551 C13.7422655,19.6099551 14.021553,19.503326 14.2347021,19.290286 L25.1005028,8.42437616 L26.8583006,8.42437616 C27.1086662,8.42437616 27.3478995,8.32440455 27.5233956,8.14585264 C28.3190211,7.33625722 30.6134569,5.00460497 31.5947284,4.00761735 C31.7636761,3.83605036 31.6416583,3.54639462 31.400897,3.54639462" id="Fill-10" fill="#A17DB7"></path>
            <path d="M27.2504054,8.42441982 L27.250078,8.42441982 C27.2441845,8.43042248 27.2437479,8.43107732 27.2504054,8.42441982" id="Fill-12" fill="#A17DB7"></path>
        </g>
    </g>
</svg>