<?xml version="1.0" encoding="UTF-8" standalone="no"?>
<svg width="33px" height="33px" viewBox="0 0 33 33" version="1.1" xmlns="http://www.w3.org/2000/svg" xmlns:xlink="http://www.w3.org/1999/xlink">
    <!-- Generator: Sketch 48.2 (47327) - http://www.bohemiancoding.com/sketch -->
    <title>Page 1 Copy 3</title>
    <desc>Created with Sketch.</desc>
    <defs></defs>
    <g id="Tablet-Portrait" stroke="none" stroke-width="1" fill="none" fill-rule="evenodd" transform="translate(-28.000000, -873.000000)">
        <g id="Page-1-Copy-3" transform="translate(28.514868, 873.767788)">
            <path d="M16.1727166,7.3725145 C11.1807267,7.3725145 7.11938935,11.4338518 7.11938935,16.4258418 C7.11938935,21.4178317 11.1807267,25.479169 16.1727166,25.479169 C21.1647066,25.479169 25.2260439,21.4178317 25.2260439,16.4258418 C25.2260439,11.4338518 21.1647066,7.3725145 16.1727166,7.3725145 M16.1727166,26.9512548 C10.3690186,26.9512548 5.64730362,22.2295398 5.64730362,16.4258418 C5.64730362,10.6221438 10.3690186,5.90042876 16.1727166,5.90042876 C21.9764146,5.90042876 26.6981296,10.6221438 26.6981296,16.4258418 C26.6981296,22.2295398 21.9764146,26.9512548 16.1727166,26.9512548" id="Fill-1" fill="#ECB75F"></path>
            <path d="M16.1727166,23.6982986 C12.1626079,23.6982986 8.90031868,20.4358622 8.90031868,16.4259006 C8.90031868,12.4157919 12.1626079,9.15335549 16.1727166,9.15335549 C20.1828254,9.15335549 23.4451146,12.4157919 23.4451146,16.4259006 C23.4451146,20.4358622 20.1828254,23.6982986 16.1727166,23.6982986" id="Fill-3" fill="#ECB75F"></path>
            <path d="M16.5663376,17.1982599 L16.5663376,18.2708215 C16.5663376,18.4480607 16.7378356,18.5721575 16.9080087,18.5225482 C17.3053247,18.406695 17.5261375,18.1252323 17.5261375,17.7224696 C17.5261375,17.3591588 17.3366801,17.1097875 16.9271458,16.9535992 C16.7535869,16.8873554 16.5663376,17.0124826 16.5663376,17.1982599 M16.0405086,15.5782295 L16.0405086,14.6603841 C16.0405086,14.4690129 15.8425131,14.3422663 15.6679237,14.4204341 C15.3771868,14.5505665 15.188171,14.8115673 15.188171,15.1311571 C15.188171,15.4397063 15.354075,15.671707 15.6668932,15.8177379 C15.8404521,15.8988498 16.0405086,15.7698951 16.0405086,15.5782295 M16.0405086,19.5054598 L16.0405086,19.497805 C16.0405086,19.3670838 15.9439398,19.2566774 15.8146906,19.2384235 C14.9803125,19.1210983 14.4134122,18.6740258 14.2735641,18.0217446 C14.2385285,17.8579015 14.364539,17.7031853 14.5319151,17.7031853 L14.8372257,17.7031853 C14.9510179,17.7031853 15.0550944,17.7753175 15.0867443,17.8845462 C15.1680034,18.166009 15.3835167,18.3788726 15.699868,18.4906039 C15.8668025,18.5497818 16.0405086,18.4164108 16.0405086,18.2393189 L16.0405086,16.9547769 C16.0405086,16.8348019 15.9593967,16.7301366 15.8432491,16.7002533 L15.6986903,16.6628623 C14.838845,16.4477906 14.3667471,15.9334438 14.3667471,15.1888628 C14.3667471,14.3767131 14.9118605,13.8158485 15.8211678,13.6623099 C15.9474728,13.6411119 16.0405086,13.5321776 16.0405086,13.4042533 L16.0405086,13.3633293 C16.0405086,13.2181817 16.1582755,13.1004148 16.3034231,13.1004148 C16.4485708,13.1004148 16.5663376,13.2181817 16.5663376,13.3633293 L16.5663376,13.4035173 C16.5663376,13.5317359 16.6595207,13.6402286 16.7859728,13.6618683 C17.5382086,13.7896454 18.0572661,14.2331848 18.2028553,14.852344 C18.241424,15.0163344 18.1137941,15.1734059 17.9453875,15.1734059 L17.6645136,15.1734059 C17.5507214,15.1734059 17.4441423,15.1020098 17.4147006,14.9921922 C17.3512537,14.7550392 17.1810806,14.5591046 16.9393642,14.4413377 C16.7671301,14.357576 16.5663376,14.4896221 16.5663376,14.6811405 L16.5663376,15.8384943 C16.5663376,15.9614134 16.6514242,16.0678452 16.7713992,16.0949316 L16.9233184,16.1292312 C17.8754635,16.3671203 18.3399065,16.8470202 18.3399065,17.6456267 C18.3399065,18.5147461 17.7763921,19.0842961 16.7892114,19.2320935 C16.6612872,19.2513778 16.5663376,19.3616371 16.5663376,19.4910334 L16.5663376,19.5054598 C16.5663376,19.6506075 16.4485708,19.7683744 16.3034231,19.7683744 C16.1582755,19.7683744 16.0405086,19.6506075 16.0405086,19.5054598" id="Fill-5" fill="#FEFEFE"></path>
            <path d="M15.7765195,14.415532 C15.7423671,14.415532 15.7079203,14.4227453 15.6753872,14.4371717 C15.3818533,14.568629 15.2065279,14.8280105 15.2065279,15.1311129 C15.2065279,15.4306824 15.364041,15.6560587 15.6746511,15.8010591 C15.7500219,15.8360948 15.8370222,15.8303536 15.9079767,15.7853078 C15.9793729,15.7398204 16.0220634,15.6625359 16.0220634,15.5781854 L16.0220634,14.6603399 C16.0220634,14.5773143 15.9804033,14.5004714 15.9104793,14.4552784 C15.8698497,14.428928 15.8233318,14.415532 15.7765195,14.415532 Z M15.7768139,15.8606786 C15.7367732,15.8606786 15.6967324,15.8519933 15.659047,15.8344755 C15.3390156,15.6849116 15.1697257,15.4418702 15.1697257,15.1311129 C15.1697257,14.8131424 15.3532948,14.5412482 15.6603719,14.4036081 C15.748697,14.364009 15.8495349,14.3718111 15.9304996,14.4245118 C16.0108755,14.4764764 16.0588655,14.5646543 16.0588655,14.6603399 L16.0588655,15.5781854 C16.0588655,15.6751958 16.0098451,15.7641098 15.9277027,15.8163688 C15.8816264,15.8458105 15.8292201,15.8606786 15.7768139,15.8606786 Z M16.8309745,16.9542911 C16.781218,16.9542911 16.7320503,16.9691592 16.6900959,16.998012 C16.623116,17.0439411 16.5846945,17.1171038 16.5846945,17.1982157 L16.5846945,18.2707774 C16.5846945,18.3480619 16.6201718,18.4188692 16.6818522,18.4652399 C16.7454463,18.5129355 16.8261166,18.5275091 16.9028123,18.504839 C17.292915,18.391194 17.5076923,18.1132642 17.5076923,17.7224254 C17.5076923,17.3625005 17.3210318,17.123581 16.9204773,16.9707785 C16.8914772,16.9595906 16.8611522,16.9542911 16.8309745,16.9542911 Z M16.8311217,18.552093 C16.7698829,18.552093 16.7102634,18.5325142 16.6597709,18.4946816 C16.5886692,18.4413921 16.5478924,18.3596914 16.5478924,18.2707774 L16.5478924,17.1982157 C16.5478924,17.1048855 16.5922022,17.0206822 16.6691923,16.9676871 C16.746624,16.9143976 16.8455481,16.9027681 16.9335789,16.9363317 C17.3445852,17.0931088 17.5444944,17.3504294 17.5444944,17.7224254 C17.5444944,18.1310764 17.3202958,18.421519 16.9131169,18.5403163 C16.8860305,18.5481183 16.8583553,18.552093 16.8311217,18.552093 Z M14.531871,17.7215422 C14.4575306,17.7215422 14.387901,17.7549585 14.3409415,17.8129587 C14.2941291,17.8708117 14.2761697,17.9454464 14.2916266,18.017873 C14.4301499,18.6650019 14.9863038,19.1033891 15.8172962,19.2202727 C15.9549363,19.2397042 16.0588655,19.3590904 16.0588655,19.4977608 L16.0588655,19.5054157 C16.0588655,19.6402587 16.1685359,19.7499291 16.303379,19.7499291 C16.438222,19.7499291 16.5478924,19.6402587 16.5478924,19.5054157 L16.5478924,19.4911364 C16.5478924,19.3534964 16.6504968,19.2344047 16.7865175,19.2139427 C17.7619215,19.0679118 18.3214613,18.4961537 18.3214613,17.6455826 C18.3214613,16.862433 17.8758609,16.3863604 16.918858,16.1471465 L16.7672332,16.1128469 C16.6381312,16.0836996 16.5478924,15.9707906 16.5478924,15.8384501 L16.5478924,14.6812435 C16.5478924,14.582761 16.5980905,14.4925221 16.6821466,14.4401159 C16.7634057,14.3890345 16.8624771,14.3835878 16.9474165,14.4248062 C17.1954629,14.5456644 17.3676969,14.7454265 17.4324687,14.9874374 C17.4589663,15.0860671 17.5543574,15.1549607 17.6644694,15.1549607 L17.9453434,15.1549607 C18.0210086,15.1549607 18.0915215,15.1208083 18.1387754,15.0611888 C18.1849989,15.002747 18.2017807,14.9281123 18.1849989,14.8565689 C18.041029,14.2444757 17.5168192,13.8047637 16.7828373,13.6799308 C16.6466693,13.6568191 16.5478924,13.5405243 16.5478924,13.4034731 L16.5478924,13.3634324 C16.5478924,13.2285893 16.438222,13.1187717 16.303379,13.1187717 C16.1685359,13.1187717 16.0588655,13.2285893 16.0588655,13.3634324 L16.0588655,13.4042091 C16.0588655,13.5415547 15.9602358,13.6577023 15.8243623,13.6805196 C14.9231514,13.8327333 14.385104,14.3965421 14.385104,15.1888187 C14.385104,15.925892 14.8408618,16.4294925 15.7032096,16.6451531 L15.8479156,16.6823969 C15.9721597,16.7144883 16.0588655,16.8263668 16.0588655,16.9547327 L16.0588655,18.2394219 C16.0588655,18.3318689 16.0135253,18.4190164 15.9375656,18.4728947 C15.8648446,18.5242705 15.7760778,18.5372249 15.6937882,18.5080776 C15.3734624,18.394727 15.1514719,18.1750918 15.0690351,17.8898016 C15.0404766,17.7907302 14.9450854,17.7215422 14.8371816,17.7215422 L14.531871,17.7215422 Z M16.303379,19.7867313 C16.1482211,19.7867313 16.0220634,19.6605735 16.0220634,19.5054157 L16.0220634,19.4977608 C16.0220634,19.377197 15.9318245,19.2735622 15.8121439,19.2567804 C14.9649586,19.1373942 14.3976168,18.6887025 14.2555605,18.0255279 C14.2377482,17.942355 14.2583574,17.8563852 14.3122358,17.789847 C14.3662613,17.7230143 14.4463428,17.68474 14.531871,17.68474 L14.8371816,17.68474 C14.9614256,17.68474 15.0712432,17.7648215 15.1043651,17.8793498 C15.1835633,18.1533049 15.397163,18.3641076 15.7060066,18.4731892 C15.7766667,18.4980674 15.8532151,18.487174 15.9163676,18.442717 C15.9824643,18.3959047 16.0220634,18.3197978 16.0220634,18.2394219 L16.0220634,16.9547327 C16.0220634,16.8431486 15.9466926,16.7458438 15.8386415,16.7181685 L15.6940827,16.6807776 C14.8262881,16.4636449 14.3483019,15.9336941 14.3483019,15.1888187 C14.3483019,14.3769634 14.8978315,13.7996114 15.8181795,13.6443063 C15.9362408,13.624286 16.0220634,13.5233009 16.0220634,13.4042091 L16.0220634,13.3634324 C16.0220634,13.2082745 16.1482211,13.0819696 16.303379,13.0819696 C16.4585368,13.0819696 16.5846945,13.2082745 16.5846945,13.3634324 L16.5846945,13.4034731 C16.5846945,13.5225648 16.6706643,13.6234027 16.78902,13.6437175 C17.5380173,13.7709057 18.0734148,14.2212167 18.2207706,14.848178 C18.2402022,14.930762 18.2207706,15.0167319 18.1676283,15.0840062 C18.1134556,15.1526054 18.0323436,15.1917629 17.9453434,15.1917629 L17.6644694,15.1917629 C17.5377228,15.1917629 17.4276108,15.1116814 17.3968442,14.9968587 C17.3348694,14.7654468 17.1695542,14.5739285 16.9312235,14.4579281 C16.8580609,14.4224508 16.7723855,14.4273087 16.7015781,14.4713241 C16.6284155,14.5169587 16.5846945,14.5955681 16.5846945,14.6812435 L16.5846945,15.8384501 C16.5846945,15.9535672 16.6631567,16.0516081 16.7753296,16.076928 L16.9273961,16.1113748 C17.9036834,16.3552994 18.3582634,16.842707 18.3582634,17.6455826 C18.3582634,18.5161741 17.7873886,19.1011809 16.7919642,19.2504504 C16.6737557,19.2681155 16.5846945,19.3716031 16.5846945,19.4911364 L16.5846945,19.5054157 C16.5846945,19.6605735 16.4585368,19.7867313 16.303379,19.7867313 Z" id="Fill-7" fill="#FEFEFE"></path>
            <path d="M16.2921175,4.91813539 C15.6778161,4.91813539 15.1796623,4.42012879 15.1796623,3.8056802 L15.1796623,1.11235214 C15.1796623,0.498050767 15.6778161,4.4162572e-05 16.2921175,4.4162572e-05 C16.9064189,4.4162572e-05 17.4045727,0.498050767 17.4045727,1.11235214 L17.4045727,3.8056802 C17.4045727,4.42012879 16.9064189,4.91813539 16.2921175,4.91813539" id="Fill-11" fill="#5CBF94"></path>
            <path d="M6.42086995,4.61824209 L8.15204278,6.68151745" id="Fill-13" fill="#ECB75F"></path>
            <path d="M8.15266105,7.7938696 C7.83513216,7.7938696 7.5199586,7.65873213 7.29988179,7.39655366 L5.56870896,5.33327829 C5.17374836,4.86265248 5.23513433,4.16090921 5.70576014,3.76609582 C6.17623874,3.37113522 6.87798201,3.43252119 7.27308983,3.903147 L9.00426265,5.96642237 C9.39922325,6.43704817 9.33783728,7.13879144 8.86721147,7.53360484 C8.65876413,7.70848862 8.40497655,7.7938696 8.15266105,7.7938696" id="Fill-15" fill="#5CBF94"></path>
            <path d="M1.11258768,13.6491495 L3.76499175,14.1491495" id="Fill-17" fill="#ECB75F"></path>
            <g id="Group-21" transform="translate(0.000000, 12.390546)" fill="#5CBF94">
                <path d="M3.76630191,2.83879957 C3.70211897,2.83879957 3.63719999,2.83335285 3.57183938,2.82187059 L0.919435308,2.35418895 C0.314408071,2.24746273 -0.0895322544,1.67040512 0.0170467528,1.06537789 C0.12362576,0.460350651 0.700241742,0.0564103253 1.3057106,0.162989333 L3.95811468,0.63067097 C4.56328913,0.737397186 4.96722945,1.31445479 4.86050324,1.91948203 C4.7654065,2.45914866 4.29595836,2.83879957 3.76630191,2.83879957" id="Fill-19"></path>
            </g>
            <path d="M2.85113565,23.979202 L5.1836555,22.6326852" id="Fill-22" fill="#ECB75F"></path>
            <path d="M2.85213667,25.0917455 C2.46777508,25.0917455 2.0937181,24.8924251 1.8877733,24.5354443 C1.58054901,24.0032853 1.76294043,23.3228873 2.29495222,23.015663 L4.62747206,21.6691462 C5.15933664,21.3623635 5.83988188,21.5441661 6.14695896,22.0764723 C6.45418325,22.6084841 6.27179183,23.2888821 5.73978005,23.5961064 L3.4072602,24.9426232 C3.23222921,25.0437555 3.04085806,25.0917455 2.85213667,25.0917455" id="Fill-24" fill="#5CBF94"></path>
            <path d="M10.8230393,30.7749386 L11.7441233,28.2441288" id="Fill-26" fill="#ECB75F"></path>
            <path d="M10.8229657,31.8876293 C10.6966607,31.8876293 10.5681477,31.8659896 10.4425787,31.820355 C9.86522671,31.6101411 9.56757098,30.9716976 9.77763761,30.3943455 L10.6988689,27.8635357 C10.9089355,27.2861837 11.5475263,26.9894112 12.1245839,27.1985946 C12.7019359,27.4088085 12.9995917,28.047252 12.789525,28.6246041 L11.868441,31.1554139 C11.704009,31.607197 11.2773986,31.8876293 10.8229657,31.8876293" id="Fill-28" fill="#5CBF94"></path>
            <path d="M21.2980628,30.8565952 L20.3768315,28.3257854" id="Fill-30" fill="#ECB75F"></path>
            <path d="M21.2981364,31.9692859 C20.8437035,31.9692859 20.4172403,31.6888536 20.2526611,31.2370705 L19.3315771,28.7062607 C19.1213632,28.1289086 19.419019,27.490465 19.996371,27.2803984 C20.5734286,27.0701846 21.2120194,27.3678403 21.4222332,27.9451923 L22.3434645,30.4760021 C22.5535311,31.0533542 22.2558754,31.6917977 21.6785234,31.9018644 C21.5529544,31.9476462 21.4244414,31.9692859 21.2981364,31.9692859" id="Fill-32" fill="#5CBF94"></path>
            <path d="M29.3749114,24.185927 L27.0423916,22.8394102" id="Fill-34" fill="#ECB75F"></path>
            <path d="M29.3739104,25.2984705 C29.185189,25.2984705 28.9939651,25.2504805 28.8187869,25.1493482 L26.486267,23.8028314 C25.9542553,23.4956071 25.7718638,22.8152091 26.0789409,22.2831973 C26.3863124,21.7511855 27.0665632,21.5692357 27.598575,21.8758712 L29.9310949,23.222388 C30.4631067,23.5296123 30.6454981,24.2100103 30.338421,24.7421693 C30.1321818,25.0990029 29.758272,25.2984705 29.3739104,25.2984705" id="Fill-36" fill="#5CBF94"></path>
            <g id="Group-42" transform="translate(27.380795, 12.684963)" fill="#5CBF94">
                <path d="M1.23982005,2.77956284 C0.710016391,2.77956284 0.240862668,2.39991193 0.145471512,1.8602453 C0.0388925051,1.25521806 0.442832831,0.678307665 1.04786007,0.57143424 L3.70026414,0.103605394 C4.30455534,-0.00282640461 4.88220178,0.401113921 4.9890752,1.00599395 C5.09565421,1.61116839 4.69171389,2.18793159 4.08668665,2.29480501 L1.43428257,2.76263386 C1.36906917,2.77411612 1.30400299,2.77956284 1.23982005,2.77956284" id="Fill-40"></path>
            </g>
            <path d="M26.1074258,4.77178063 L24.376253,6.83505599" id="Fill-43" fill="#ECB75F"></path>
            <path d="M24.3756494,7.94740814 C24.1233339,7.94740814 23.8695463,7.86202717 23.661099,7.68714338 C23.1904732,7.29232999 23.1290872,6.59058672 23.5240478,6.11996091 L25.2552206,4.05668554 C25.6501812,3.58605973 26.3516301,3.52467376 26.8225503,3.91963436 C27.2931761,4.31444775 27.3545621,5.01619102 26.9596015,5.48681683 L25.2284287,7.5500922 C25.0083518,7.81227067 24.6930311,7.94740814 24.3756494,7.94740814" id="Fill-45" fill="#5CBF94"></path>
        </g>
    </g>
</svg>