<?xml version="1.0" encoding="UTF-8" standalone="no"?>
<svg width="185px" height="303px" viewBox="0 0 185 303" version="1.1" xmlns="http://www.w3.org/2000/svg" xmlns:xlink="http://www.w3.org/1999/xlink">
    <!-- Generator: Sketch 48.2 (47327) - http://www.bohemiancoding.com/sketch -->
    <title>Rectangle 7 + Rectangle 7 Mask</title>
    <desc>Created with Sketch.</desc>
    <defs>
        <rect id="path-1" x="0.00799172865" y="0.0790390796" width="184.491888" height="302.075139" rx="4"></rect>
    </defs>
    <g id="Desktop-HD-Copy" stroke="none" stroke-width="1" fill="none" fill-rule="evenodd" transform="translate(-1128.000000, -3185.000000)">
        <g id="token" transform="translate(127.000000, 3185.000000)">
            <g id="Rectangle-7-+-Rectangle-7-Mask" transform="translate(1001.402344, 0.277344)">
                <mask id="mask-2" fill="white">
                    <use xlink:href="#path-1"></use>
                </mask>
                <use id="Mask" fill="#FFFFFF" xlink:href="#path-1"></use>
                <path d="M-0.0110481316,82.2233499 C56.3324454,41.7351098 91.3075477,88.454367 186.203272,68.4609585 C186.293524,113.24971 186.29473,184.653256 186.20689,282.671599 L186.206896,282.671599 C186.204917,284.879341 184.414634,286.668021 182.206891,286.668021 L5.66012284,286.668029 C3.47102551,286.668029 1.68857372,284.908335 1.6604448,282.719419 C0.519942034,193.968578 -0.0372222757,127.136555 -0.0110481316,82.2233499 Z" id="Rectangle-7" fill="#E5E5E5" mask="url(#mask-2)" transform="translate(93.129974, 175.882673) scale(-1, 1) translate(-93.129974, -175.882673) "></path>
                <path d="M0.00799172865,61.1045414 C91.3192742,41.2437155 128.155979,93.1811151 184.49988,69.8554274 C184.590233,118.725466 184.59134,196.66804 184.503201,303.68315 L184.503214,303.68315 C184.501395,305.891009 182.711062,307.679868 180.503203,307.679868 L4.00708572,307.67988 C1.79829553,307.67988 0.00757634435,305.889569 0.00707350168,303.680778 C-0.0185655634,191.058447 -0.0182594877,110.199701 0.00799172865,61.1045414 Z" id="Rectangle-7" fill="#1DE2A0" mask="url(#mask-2)"></path>
            </g>
        </g>
    </g>
</svg>