<?xml version="1.0" encoding="UTF-8" standalone="no"?>
<svg width="91px" height="101px" viewBox="0 0 91 101" version="1.1" xmlns="http://www.w3.org/2000/svg" xmlns:xlink="http://www.w3.org/1999/xlink">
    <!-- Generator: Sketch 48.2 (47327) - http://www.bohemiancoding.com/sketch -->
    <title>Group 5</title>
    <desc>Created with Sketch.</desc>
    <defs></defs>
    <g id="Desktop-HD-Copy" stroke="none" stroke-width="1" fill="none" fill-rule="evenodd" transform="translate(-842.000000, -389.000000)">
        <g id="Group-5" transform="translate(842.000000, 389.000000)" fill="#E5E5E5">
            <path d="M82.5754907,76.7845586 C82.5754907,77.713148 81.8203613,78.4682774 80.8917719,78.4682774 L76.0221705,78.4682774 L76.0221705,25.0148326 C76.0221705,19.6225383 71.6359444,15.2363122 66.2436501,15.2363122 L23.7066236,15.2363122 L23.7066236,10.7529485 C23.7066236,9.82435908 24.461753,9.06922972 25.389186,9.06922972 L80.8917719,9.06922972 C81.8203613,9.06922972 82.5754907,9.82435908 82.5754907,10.7529485 L82.5754907,76.7845586 Z M67.9273688,91.0475992 C67.9273688,91.9761886 67.1722395,92.7301615 66.2436501,92.7301615 L10.7410641,92.7301615 C9.81247474,92.7301615 9.05734539,91.9761886 9.05734539,91.0475992 L9.05734539,25.0148326 C9.05734539,24.0862432 9.81247474,23.3311139 10.7410641,23.3311139 L66.2436501,23.3311139 C67.1722395,23.3311139 67.9273688,24.0862432 67.9273688,25.0148326 L67.9273688,91.0475992 Z M80.8917719,0.974428042 L25.389186,0.974428042 C19.9980481,0.974428042 15.611822,5.36065415 15.611822,10.7529485 L15.611822,15.2363122 L10.7410641,15.2363122 C5.34876982,15.2363122 0.962543705,19.6225383 0.962543705,25.0148326 L0.962543705,91.0475992 C0.962543705,96.4387371 5.34876982,100.824963 10.7410641,100.824963 L66.2436501,100.824963 C71.6359444,100.824963 76.0221705,96.4387371 76.0221705,91.0475992 L76.0221705,86.563079 L80.8917719,86.563079 C86.2840662,86.563079 90.6702924,82.1768529 90.6702924,76.7845586 L90.6702924,10.7529485 C90.6702924,5.36065415 86.2840662,0.974428042 80.8917719,0.974428042 Z" id="Fill-1"></path>
            <path d="M55.4864681,35.1592381 L21.4975523,35.1592381 C19.2622306,35.1592381 17.4501514,36.9713173 17.4501514,39.2066389 C17.4501514,41.4419606 19.2622306,43.2540398 21.4975523,43.2540398 L55.4864681,43.2540398 C57.7217898,43.2540398 59.533869,41.4419606 59.533869,39.2066389 C59.533869,36.9713173 57.7217898,35.1592381 55.4864681,35.1592381" id="Fill-4"></path>
            <path d="M55.4864681,53.9835838 L21.4975523,53.9835838 C19.2622306,53.9835838 17.4501514,55.795663 17.4501514,58.0309846 C17.4501514,60.2663063 19.2622306,62.0783855 21.4975523,62.0783855 L55.4864681,62.0783855 C57.7217898,62.0783855 59.533869,60.2663063 59.533869,58.0309846 C59.533869,55.795663 57.7217898,53.9835838 55.4864681,53.9835838" id="Fill-6"></path>
            <path d="M55.4864681,72.808392 L21.4975523,72.808392 C19.2622306,72.808392 17.4501514,74.6204712 17.4501514,76.8557929 C17.4501514,79.0911145 19.2622306,80.9031937 21.4975523,80.9031937 L55.4864681,80.9031937 C57.7217898,80.9031937 59.533869,79.0911145 59.533869,76.8557929 C59.533869,74.6204712 57.7217898,72.808392 55.4864681,72.808392" id="Fill-8"></path>
        </g>
    </g>
</svg>